<?xml version="1.0" encoding="UTF-8"?>
<svg version="1.1" xmlns="http://www.w3.org/2000/svg" width="729" height="729">
<path d="M0 0 C0.91245483 0.00093658 1.82490967 0.00187317 2.76501465 0.00283813 C16.28879436 0.03292325 29.65804519 0.22564018 43.0625 2.1875 C44.67463379 2.42146484 44.67463379 2.42146484 46.31933594 2.66015625 C115.27143681 13.00009917 180.46443932 41.0408609 233.0625 87.1875 C233.75988281 87.785625 234.45726562 88.38375 235.17578125 89 C244.32504398 96.88011035 253.33214106 104.89149874 261.0625 114.1875 C261.94828506 115.20247637 262.83653305 116.21530596 263.7265625 117.2265625 C323.8244272 185.77971162 357.03540917 278.932574 351.83984375 370.09423828 C350.52243476 388.66553009 347.83133384 406.96174625 344.0625 425.1875 C343.88525391 426.05246094 343.70800781 426.91742188 343.52539062 427.80859375 C338.03270135 453.77786027 328.43694214 479.28018544 317.0625 503.1875 C316.43843262 504.51394531 316.43843262 504.51394531 315.80175781 505.8671875 C300.97360564 537.19327583 281.07442875 565.36814581 258.0625 591.1875 C257.14307541 592.23163546 256.22379726 593.27589989 255.3046875 594.3203125 C251.1276474 599.00830551 246.90904052 603.41959143 242.1015625 607.4609375 C239.82046533 609.39244123 237.63514829 611.41165483 235.4375 613.4375 C166.5545537 675.40069827 71.99043272 706.66633517 -20.01593018 702.08398438 C-38.19070274 700.99502658 -56.14994173 697.98272557 -73.9375 694.1875 C-74.92459961 693.97786621 -75.91169922 693.76823242 -76.92871094 693.55224609 C-103.62508799 687.72782658 -129.50417121 678.36359095 -153.9375 666.1875 C-154.97487305 665.67429199 -156.01224609 665.16108398 -157.08105469 664.63232422 C-187.30470074 649.58459254 -214.05338531 630.84252292 -239.34277344 608.58251953 C-240.68857306 607.40525391 -242.04965948 606.24549741 -243.4140625 605.08984375 C-247.34148217 601.76139349 -250.77774306 598.26070063 -254.10546875 594.33203125 C-256.07878287 592.02211771 -258.12889337 589.79661838 -260.1875 587.5625 C-265.77270908 581.36197127 -270.88547486 574.82419923 -275.9375 568.1875 C-276.62247559 567.28789551 -276.62247559 567.28789551 -277.32128906 566.37011719 C-332.77821505 493.09760445 -360.14429876 399.26146831 -348.125 307.78125 C-339.08248804 243.38258456 -314.08800555 180.9011512 -272.9375 130.1875 C-272.2053125 129.26453125 -271.473125 128.3415625 -270.71875 127.390625 C-265.87932886 121.3583888 -260.76485095 115.63791737 -255.50390625 109.9765625 C-253.36251785 107.64939155 -251.29407371 105.28691385 -249.25 102.875 C-246.5057525 99.72586353 -243.59316624 96.97787143 -240.40625 94.28125 C-238.46667882 92.63629723 -236.55694764 90.97027904 -234.65625 89.28125 C-170.54415566 32.51964175 -85.60352715 -0.11348879 0 0 Z " fill="#FEFEFE" transform="translate(363.9375,12.8125)"/>
<path d="M0 0 C0.91245483 0.00093658 1.82490967 0.00187317 2.76501465 0.00283813 C16.28879436 0.03292325 29.65804519 0.22564018 43.0625 2.1875 C44.67463379 2.42146484 44.67463379 2.42146484 46.31933594 2.66015625 C115.27143681 13.00009917 180.46443932 41.0408609 233.0625 87.1875 C233.75988281 87.785625 234.45726562 88.38375 235.17578125 89 C244.32504398 96.88011035 253.33214106 104.89149874 261.0625 114.1875 C261.94828506 115.20247637 262.83653305 116.21530596 263.7265625 117.2265625 C323.8244272 185.77971162 357.03540917 278.932574 351.83984375 370.09423828 C350.52243476 388.66553009 347.83133384 406.96174625 344.0625 425.1875 C343.88525391 426.05246094 343.70800781 426.91742188 343.52539062 427.80859375 C338.03270135 453.77786027 328.43694214 479.28018544 317.0625 503.1875 C316.43843262 504.51394531 316.43843262 504.51394531 315.80175781 505.8671875 C300.97360564 537.19327583 281.07442875 565.36814581 258.0625 591.1875 C257.14307541 592.23163546 256.22379726 593.27589989 255.3046875 594.3203125 C251.1276474 599.00830551 246.90904052 603.41959143 242.1015625 607.4609375 C239.82046533 609.39244123 237.63514829 611.41165483 235.4375 613.4375 C166.5545537 675.40069827 71.99043272 706.66633517 -20.01593018 702.08398438 C-38.19070274 700.99502658 -56.14994173 697.98272557 -73.9375 694.1875 C-74.92459961 693.97786621 -75.91169922 693.76823242 -76.92871094 693.55224609 C-103.62508799 687.72782658 -129.50417121 678.36359095 -153.9375 666.1875 C-154.97487305 665.67429199 -156.01224609 665.16108398 -157.08105469 664.63232422 C-187.30470074 649.58459254 -214.05338531 630.84252292 -239.34277344 608.58251953 C-240.68857306 607.40525391 -242.04965948 606.24549741 -243.4140625 605.08984375 C-247.34148217 601.76139349 -250.77774306 598.26070063 -254.10546875 594.33203125 C-256.07878287 592.02211771 -258.12889337 589.79661838 -260.1875 587.5625 C-265.77270908 581.36197127 -270.88547486 574.82419923 -275.9375 568.1875 C-276.62247559 567.28789551 -276.62247559 567.28789551 -277.32128906 566.37011719 C-332.77821505 493.09760445 -360.14429876 399.26146831 -348.125 307.78125 C-339.08248804 243.38258456 -314.08800555 180.9011512 -272.9375 130.1875 C-272.2053125 129.26453125 -271.473125 128.3415625 -270.71875 127.390625 C-265.87932886 121.3583888 -260.76485095 115.63791737 -255.50390625 109.9765625 C-253.36251785 107.64939155 -251.29407371 105.28691385 -249.25 102.875 C-246.5057525 99.72586353 -243.59316624 96.97787143 -240.40625 94.28125 C-238.46667882 92.63629723 -236.55694764 90.97027904 -234.65625 89.28125 C-170.54415566 32.51964175 -85.60352715 -0.11348879 0 0 Z M1.0625 33.1875 C1.0625 44.0775 1.0625 54.9675 1.0625 66.1875 C-3.000625 66.27 -7.06375 66.3525 -11.25 66.4375 C-85.242713 68.70307209 -155.98649338 102.03232048 -207.01953125 155.36328125 C-208.70020164 157.2729481 -210.31595594 159.22739179 -211.9375 161.1875 C-213.23494141 162.65316406 -213.23494141 162.65316406 -214.55859375 164.1484375 C-227.92697715 179.26863198 -238.92714757 195.6909492 -248.9375 213.1875 C-249.31213379 213.83219238 -249.68676758 214.47688477 -250.07275391 215.14111328 C-284.75544249 275.1481864 -293.54869908 352.89038975 -276.26904297 419.77490234 C-274.87720877 424.83046506 -273.33050581 429.82907802 -271.70654297 434.81445312 C-270.96102546 437.11490714 -270.24536504 439.42281328 -269.53515625 441.734375 C-264.43500898 458.03453122 -257.18783099 473.2912521 -249.03613281 488.27319336 C-248.42850098 489.39479858 -248.42850098 489.39479858 -247.80859375 490.5390625 C-247.44693115 491.19729004 -247.08526855 491.85551758 -246.71264648 492.53369141 C-245.9375 494.1875 -245.9375 494.1875 -245.9375 496.1875 C-246.71988037 496.62094727 -247.50226074 497.05439453 -248.30834961 497.50097656 C-251.20856947 499.11583003 -254.10175244 500.74206218 -256.9909668 502.37646484 C-258.24257641 503.0813366 -259.49680732 503.7815748 -260.75366211 504.47705078 C-262.56032768 505.4778193 -264.35689759 506.49489657 -266.15234375 507.515625 C-267.77837524 508.42683105 -267.77837524 508.42683105 -269.43725586 509.35644531 C-272.0180425 510.94180122 -272.0180425 510.94180122 -272.89892578 513.21557617 C-272.96777672 516.73525365 -270.74396095 519.40781097 -268.875 522.25 C-268.20476807 523.29196533 -268.20476807 523.29196533 -267.52099609 524.35498047 C-258.34417017 538.40826021 -248.1781958 551.72823319 -236.9375 564.1875 C-236.1340918 565.083479 -236.1340918 565.083479 -235.31445312 565.99755859 C-222.34051304 580.39832931 -208.45333679 593.56148784 -192.9375 605.1875 C-191.75777764 606.08719387 -190.57809056 606.98693401 -189.3984375 607.88671875 C-123.69358993 657.52702842 -39.54360012 678.87133274 41.97949219 668.69873047 C121.08972532 657.49027885 200.02513812 617.92036468 249.0625 553.1875 C250.08333209 551.88179248 251.10558814 550.57719757 252.12890625 549.2734375 C290.05470872 500.68707916 312.53195312 443.41595447 319.0625 382.1875 C319.19527344 380.9603125 319.32804688 379.733125 319.46484375 378.46875 C319.78558056 374.70778136 319.96293518 370.9593859 320.0625 367.1875 C320.10334717 365.67567139 320.10334717 365.67567139 320.14501953 364.13330078 C321.5809038 300.47576495 306.37005277 237.28024439 272.0625 183.1875 C271.41152344 182.15367187 270.76054688 181.11984375 270.08984375 180.0546875 C251.89830252 152.03896692 228.74628761 124.44439974 202.0625 104.1875 C201.134375 103.44242187 200.20625 102.69734375 199.25 101.9296875 C184.53792131 90.25760466 168.69515643 79.90551133 152.0625 71.1875 C151.42038574 70.85057129 150.77827148 70.51364258 150.11669922 70.16650391 C146.1370877 68.09607713 142.12656797 66.09965516 138.08251953 64.15820312 C136.76531975 63.52523402 135.45101878 62.88618591 134.14013672 62.24023438 C112.39127435 51.58367792 87.8602509 43.66062851 64.0625 39.1875 C63.09957031 39.00638672 62.13664062 38.82527344 61.14453125 38.63867188 C41.35160434 35.03881761 21.18500929 33.1875 1.0625 33.1875 Z " fill="#000000" transform="translate(363.9375,12.8125)"/>
<path d="M0 0 C66.52410867 1.74146881 130.6191613 19.5624674 185 59 C186.58167969 60.13888672 186.58167969 60.13888672 188.1953125 61.30078125 C195.17087806 66.42773087 201.81425629 71.91136334 208.35522461 77.57617188 C209.49993934 78.56711388 210.64957866 79.55238375 211.80297852 80.53320312 C217.60500263 85.51619546 223.02920032 90.8455996 228.4375 96.25 C229.32759766 97.12785156 230.21769531 98.00570312 231.13476562 98.91015625 C237.1951893 104.95729923 242.70671969 111.27430074 248 118 C248.87072144 119.09779785 248.87072144 119.09779785 249.7590332 120.21777344 C301.97048519 186.5436343 326.86737946 270.92527318 317.35498047 355.06689453 C312.85947457 392.21201684 302.50310415 427.42718711 286 461 C285.58637207 461.84643066 285.17274414 462.69286133 284.74658203 463.56494141 C273.66300743 486.02247043 259.41444189 508.45290026 242.16015625 526.69921875 C240.34375391 528.6338679 238.61464924 530.60464775 236.88671875 532.6171875 C232.39141563 537.77256045 227.58320199 542.60081085 222.75 547.4375 C221.87214844 548.32759766 220.99429687 549.21769531 220.08984375 550.13476562 C214.04245808 556.19543252 207.72257509 561.70259554 201 567 C200.27876953 567.57516357 199.55753906 568.15032715 198.81445312 568.74291992 C132.0144552 621.69116901 47.54739163 644.83912763 -37 636 C-118.0686554 626.09536054 -196.9187644 584.7085527 -247.75 519.9375 C-249.51961063 517.63944814 -251.2617214 515.32179285 -253 513 C-253.4532666 512.40364746 -253.9065332 511.80729492 -254.37353516 511.19287109 C-259.77586479 504.08235468 -264.91552437 496.82211508 -269.75 489.3125 C-270.19287354 488.64105957 -270.63574707 487.96961914 -271.09204102 487.27783203 C-274.01242275 482.63717681 -274.01242275 482.63717681 -273.96142578 480.02148438 C-272.49216179 476.93222439 -270.2543733 475.98419354 -267.3203125 474.29296875 C-266.4674617 473.79848991 -266.4674617 473.79848991 -265.59738159 473.29402161 C-264.39547856 472.60131941 -263.18988677 471.91498383 -261.98095703 471.23461914 C-260.12919455 470.18986654 -258.29291156 469.12119272 -256.45703125 468.04882812 C-255.2873018 467.37873382 -254.11675468 466.7100644 -252.9453125 466.04296875 C-251.87812988 465.43477295 -250.81094727 464.82657715 -249.71142578 464.19995117 C-247 463 -247 463 -244 464 C-242.30859375 466.44921875 -242.30859375 466.44921875 -240.4375 469.6875 C-233.46391594 481.41943369 -225.39373421 492.11709212 -216.41162109 502.38354492 C-215.41339526 503.52661882 -214.42219679 504.67584756 -213.43603516 505.8293457 C-202.78081502 518.21015119 -191.05855232 530.15529224 -178 540 C-176.83903229 540.91172808 -175.67893968 541.82457113 -174.51953125 542.73828125 C-127.36751473 579.4670933 -68.69303522 600.23741038 -9 602 C-7.72125 602.04125 -6.4425 602.0825 -5.125 602.125 C22.76958886 602.7108036 51.29359695 599.12124537 78 591 C79.23621094 590.64421875 80.47242188 590.2884375 81.74609375 589.921875 C123.01119011 577.8142139 160.71831576 555.8509769 192.14453125 526.6328125 C194.66303899 524.31068635 197.22307741 522.05461464 199.8125 519.8125 C203.9328789 516.15566373 207.45505522 512.20657495 211 508 C211.87269531 507.01515625 212.74539063 506.0303125 213.64453125 505.015625 C226.99495388 489.90345568 238.01895255 473.49562094 248 456 C248.57790283 454.99308105 248.57790283 454.99308105 249.16748047 453.96582031 C264.29833919 427.37551086 275.05733375 396.17516287 280 366 C280.15936035 365.05898438 280.3187207 364.11796875 280.48291016 363.1484375 C285.73623709 330.68709703 284.94141596 295.2868934 278.41650391 263.06103516 C278.13731572 261.67949548 277.86623502 260.29629421 277.60302734 258.91162109 C274.98946225 245.19909516 270.71300856 232.12357654 266 219 C265.69078613 218.13616699 265.38157227 217.27233398 265.06298828 216.38232422 C253.0959179 183.51009574 234.07614881 154.11737978 211 128 C210.29689697 127.20215088 210.29689697 127.20215088 209.57958984 126.38818359 C197.90083822 113.22340469 185.11311117 101.50708539 171 91 C170.04383789 90.28312012 170.04383789 90.28312012 169.06835938 89.55175781 C144.66571411 71.38747279 117.02866363 57.09045339 88 48 C87.10587402 47.70786621 86.21174805 47.41573242 85.29052734 47.11474609 C60.70032624 39.10316885 35.57177634 35.55074724 9.79711914 34.21777344 C6.5162102 33.9623339 3.25776313 33.46539473 0 33 C0 22.11 0 11.22 0 0 Z " fill="#F8BD14" transform="translate(365,46)"/>
<path d="M0 0 C66.52410867 1.74146881 130.6191613 19.5624674 185 59 C186.05445313 59.75925781 187.10890625 60.51851562 188.1953125 61.30078125 C195.17087806 66.42773087 201.81425629 71.91136334 208.35522461 77.57617188 C209.49993934 78.56711388 210.64957866 79.55238375 211.80297852 80.53320312 C217.60500263 85.51619546 223.02920032 90.8455996 228.4375 96.25 C229.32759766 97.12785156 230.21769531 98.00570312 231.13476562 98.91015625 C237.1951893 104.95729923 242.70671969 111.27430074 248 118 C248.58048096 118.73186523 249.16096191 119.46373047 249.7590332 120.21777344 C301.97048519 186.5436343 326.86737946 270.92527318 317.35498047 355.06689453 C312.16686803 397.93483323 299.07593358 438.31695543 278 476 C267.77658702 470.67802473 257.82728207 465.02182391 248 459 C248.61287579 454.42094229 250.50840441 450.72522981 252.625 446.6875 C265.44036856 421.43696453 275.41019194 394.02095041 280 366 C280.15936035 365.05898438 280.3187207 364.11796875 280.48291016 363.1484375 C285.73623709 330.68709703 284.94141596 295.2868934 278.41650391 263.06103516 C278.13731572 261.67949548 277.86623502 260.29629421 277.60302734 258.91162109 C274.98946225 245.19909516 270.71300856 232.12357654 266 219 C265.69078613 218.13616699 265.38157227 217.27233398 265.06298828 216.38232422 C253.0959179 183.51009574 234.07614881 154.11737978 211 128 C210.53126465 127.46810059 210.0625293 126.93620117 209.57958984 126.38818359 C197.90083822 113.22340469 185.11311117 101.50708539 171 91 C170.36255859 90.52208008 169.72511719 90.04416016 169.06835938 89.55175781 C144.66571411 71.38747279 117.02866363 57.09045339 88 48 C87.10587402 47.70786621 86.21174805 47.41573242 85.29052734 47.11474609 C60.70032624 39.10316885 35.57177634 35.55074724 9.79711914 34.21777344 C6.5162102 33.9623339 3.25776313 33.46539473 0 33 C0 22.11 0 11.22 0 0 Z " fill="#ED4D2F" transform="translate(365,46)"/>
<path d="M0 0 C0 10.89 0 21.78 0 33 C-8.93685004 34.11710625 -8.93685004 34.11710625 -12.20703125 34.17578125 C-85.36349962 36.25454429 -156.55682103 69.30364992 -207.015625 122.109375 C-208.71697599 124.04197758 -210.35549826 126.0188007 -212 128 C-212.86625 128.97839844 -213.7325 129.95679688 -214.625 130.96484375 C-227.99116551 146.08456839 -238.99052015 162.50497433 -249 180 C-249.37463379 180.64469238 -249.74926758 181.28938477 -250.13525391 181.95361328 C-284.81794249 241.9606864 -293.61119908 319.70288975 -276.33154297 386.58740234 C-274.93970877 391.64296506 -273.39300581 396.64157802 -271.76904297 401.62695312 C-271.02352546 403.92740714 -270.30786504 406.23531328 -269.59765625 408.546875 C-264.5040845 424.82601575 -257.33946545 440.13040572 -249.01074219 454.99780273 C-248.39827637 456.11457397 -248.39827637 456.11457397 -247.7734375 457.25390625 C-247.40653809 457.90689697 -247.03963867 458.5598877 -246.66162109 459.23266602 C-246 461 -246 461 -247 464 C-249.45263672 465.7175293 -249.45263672 465.7175293 -252.6796875 467.57421875 C-253.2482547 467.90291458 -253.8168219 468.23161041 -254.40261841 468.57026672 C-255.60557961 469.26289855 -256.8111344 469.95104238 -258.01904297 470.63500977 C-259.86732557 471.68314792 -261.70547183 472.74754325 -263.54296875 473.81445312 C-272.58604244 479 -272.58604244 479 -276 479 C-297.53952921 439.19341881 -311.50285137 398.06244698 -317 353 C-317.1045752 352.18958252 -317.20915039 351.37916504 -317.31689453 350.54418945 C-318.44527655 340.39783488 -318.24399952 330.1326286 -318.25 319.9375 C-318.25101212 318.39491516 -318.25101212 318.39491516 -318.25204468 316.82116699 C-318.23556623 301.00247052 -317.6631058 285.62528611 -315 270 C-314.74259033 268.41880371 -314.74259033 268.41880371 -314.47998047 266.80566406 C-311.83427031 250.83682901 -307.93385126 235.40813043 -303 220 C-302.59442871 218.71367676 -302.59442871 218.71367676 -302.18066406 217.40136719 C-288.86177233 175.61884637 -265.56765842 137.63974124 -236.1171875 105.3359375 C-234.20919797 103.23081252 -232.34952931 101.09386366 -230.5 98.9375 C-224.19861563 91.71928604 -217.28831145 85.20389141 -210 79 C-209.08992188 78.20078125 -208.17984375 77.4015625 -207.2421875 76.578125 C-150.42943603 27.04273819 -75.16704123 0 0 0 Z " fill="#03A595" transform="translate(365,46)"/>
<path d="M0 0 C7.68613525 3.92230613 11.94061915 11.72754532 16.125 18.9375 C17.17886102 20.72314429 18.23358296 22.50828068 19.2890625 24.29296875 C19.8346582 25.21899902 20.38025391 26.1450293 20.94238281 27.09912109 C23.75356441 31.8412565 26.62748464 36.54485193 29.5 41.25 C30.68494113 43.19398281 31.86983667 45.13799341 33.0546875 47.08203125 C33.64475586 48.04963379 34.23482422 49.01723633 34.84277344 50.01416016 C37.77286239 54.8203088 40.69873957 59.62901974 43.625 64.4375 C44.79164601 66.35417924 45.95831269 68.2708459 47.125 70.1875 C82.125 127.6875 82.125 127.6875 83.87573242 130.5637207 C85.03993702 132.47633094 86.20416221 134.38892864 87.3684082 136.30151367 C90.32291531 141.15514009 93.27704082 146.00899806 96.23046875 150.86328125 C101.52154024 159.55904222 106.81439468 168.25365147 112.125 176.9375 C117.43315848 185.61734749 122.72372711 194.30785474 128.01171875 203 C130.40803572 206.93879621 132.80656379 210.87623196 135.20703125 214.8125 C140.95256663 224.23621879 146.68510149 233.66755973 152.375 243.125 C152.87660645 243.95668701 153.37821289 244.78837402 153.89501953 245.64526367 C154.35763184 246.41588135 154.82024414 247.18649902 155.296875 247.98046875 C155.7000293 248.65102295 156.10318359 249.32157715 156.51855469 250.01245117 C160.29054859 256.5751546 160.71473271 262.81235085 159.125 270.2890625 C156.85480554 276.97065756 153.14120466 281.33477954 147.0625 284.8125 C140.01679159 288.06759628 132.52541794 288.17492981 125.1875 285.6875 C118.01671759 282.16501039 114.85714434 277.61968969 110.875 270.9375 C110.32062256 270.02468262 109.76624512 269.11186523 109.19506836 268.17138672 C107.9807 266.1697393 106.77051829 264.16554747 105.56396484 262.15917969 C103.54880184 258.81089323 101.52057764 255.47071069 99.48828125 252.1328125 C96.59683882 247.38175946 93.71014662 242.62786746 90.828125 237.87109375 C87.03896073 231.61769393 83.24057549 225.36994826 79.4375 219.125 C78.87168213 218.19574707 78.30586426 217.26649414 77.72290039 216.30908203 C76.59087031 214.45000211 75.45879055 212.59095243 74.32666016 210.73193359 C71.42540563 205.96754919 68.52526793 201.20248502 65.625 196.4375 C64.45833849 194.52083019 63.29167183 192.60416352 62.125 190.6875 C41.125 156.1875 20.125 121.6875 -0.875 87.1875 C-1.45290283 86.23810547 -2.03080566 85.28871094 -2.6262207 84.31054688 C-3.78888036 82.40042836 -4.95147836 80.49027232 -6.11401367 78.58007812 C-9.0914742 73.68790969 -12.07011551 68.79646635 -15.05078125 63.90625 C-17.97185495 59.11321239 -20.88994595 54.31837538 -23.8046875 49.52148438 C-24.81700549 47.85569246 -25.82997684 46.19029734 -26.84375 44.52539062 C-28.12809326 42.41461626 -29.40852303 40.30152889 -30.6875 38.1875 C-31.05464111 37.58550781 -31.42178223 36.98351562 -31.80004883 36.36328125 C-36.00763922 29.38313617 -36.68299985 21.73595603 -34.87890625 13.73828125 C-31.9596336 6.39886695 -27.20362879 2.0721102 -20.18359375 -1.140625 C-13.22207512 -3.42562972 -6.65599925 -3.00819185 0 0 Z " fill="#333333" transform="translate(372.375,252.0625)"/>
<path d="M0 0 C1.37584285 2.7516857 0.87498427 4.80908077 0.6875 7.875 C0.6875 15.57631496 3.04125082 20.56172046 7 27 C7.48823242 27.80099121 7.97646484 28.60198242 8.47949219 29.42724609 C11.24799911 33.95475368 14.04840729 38.46024738 16.87890625 42.94921875 C19.75652319 47.54330895 22.42444212 52.23090479 25 57 C24.36312256 57.57439819 24.36312256 57.57439819 23.71337891 58.16040039 C21.61633024 60.41193384 20.17137834 62.79488345 18.5859375 65.43359375 C17.91602783 66.54323486 17.24611816 67.65287598 16.5559082 68.79614258 C15.828904 70.00990754 15.10193557 71.22369393 14.375 72.4375 C13.61658912 73.69648463 12.85771094 74.95518788 12.09838867 76.21362305 C10.51836122 78.83305566 8.94036239 81.45369416 7.36376953 84.07519531 C4.05069199 89.58064333 0.71354358 95.07144181 -2.62380981 100.56219482 C-3.69165375 102.31933501 -4.75889242 104.07684133 -5.82592773 105.83447266 C-11.97506582 115.96324562 -18.13517726 126.0853228 -24.29833984 136.20556641 C-27.19959437 140.96995081 -30.09973207 145.73501498 -33 150.5 C-34.16666151 152.41666981 -35.33332817 154.33333648 -36.5 156.25 C-37.0775 157.19875 -37.655 158.1475 -38.25 159.125 C-40 162 -41.75 164.875 -43.5 167.75 C-44.07733887 168.6985083 -44.65467773 169.6470166 -45.24951172 170.62426758 C-46.4177234 172.54342593 -47.58601784 174.4625339 -48.75439453 176.3815918 C-51.64809886 181.13472879 -54.54042045 185.8886955 -57.4296875 190.64453125 C-64.18329442 201.75722338 -70.97208666 212.84727685 -77.8034668 223.91235352 C-81.43952825 229.80989466 -85.04668162 235.72277435 -88.6171875 241.66015625 C-89.38823428 242.93987852 -90.15931149 244.21958245 -90.93041992 245.49926758 C-92.40230944 247.94242833 -93.86757879 250.38939604 -95.3293457 252.83862305 C-105.50975296 269.74381553 -105.50975296 269.74381553 -115 273 C-123.28404226 274.06308533 -130.11229929 273.42882426 -137.0546875 268.55859375 C-143.03059001 263.84135203 -146.24789689 258.89225168 -147.41015625 251.33203125 C-148.04343026 239.81943448 -140.63899894 230.54073998 -134.75 221.125 C-133.31443818 218.81371904 -131.8820447 216.50047769 -130.44921875 214.1875 C-130.08211288 213.59583038 -129.71500702 213.00416077 -129.33677673 212.39456177 C-125.36998722 205.99684992 -121.46343243 199.56300503 -117.5625 193.125 C-116.85126716 191.95196738 -116.14000401 190.77895313 -115.42871094 189.60595703 C-113.99919111 187.24824104 -112.57004838 184.89029698 -111.14111328 182.53222656 C-107.95091874 177.26836014 -104.75560533 172.00760167 -101.56066895 166.74661255 C-99.7941666 163.83769815 -98.02794324 160.92861436 -96.26171875 158.01953125 C-95.91170807 157.44305344 -95.56169739 156.86657562 -95.20108032 156.27262878 C-93.04564418 152.7224932 -90.89049697 149.17218237 -88.73554993 145.62174988 C-80.06724146 131.34009308 -71.3912275 117.06316935 -62.70166016 102.79443359 C-60.38628787 98.99217374 -58.07164447 95.18947044 -55.75708008 91.38671875 C-54.58644765 89.46347882 -53.4157121 87.54030165 -52.24487305 85.6171875 C-49.35140253 80.86446368 -46.45933318 76.11089897 -43.5703125 71.35546875 C-37.43368781 61.25824086 -31.26716469 51.18057722 -25.0625 41.125 C-18.86098271 31.07327312 -12.74964694 20.97153153 -6.69555664 10.83056641 C-5.81371704 9.35402588 -5.81371704 9.35402588 -4.9140625 7.84765625 C-4.3979541 6.98148682 -3.8818457 6.11531738 -3.35009766 5.22290039 C-2.27640177 3.45508827 -1.14730219 1.72095329 0 0 Z " fill="#BCBCBC" transform="translate(337,266)"/>
<path d="M0 0 C6.80516646 4.9215936 12.68685937 11.56804424 14.625 19.8984375 C15.86199845 31.06676632 14.89458385 41.06707933 7.79296875 50.2734375 C3.64292066 54.72634907 -0.75451513 57.6322939 -6.375 59.8984375 C-7.16261719 60.25421875 -7.95023437 60.61 -8.76171875 60.9765625 C-16.32527132 63.64472155 -24.52278031 62.20292179 -31.76953125 59.22265625 C-40.98681434 54.53801012 -46.45384129 48.18045099 -50.1875 38.6484375 C-52.62810499 30.49906107 -52.35980616 22.11802761 -48.83984375 14.3515625 C-44.2424913 6.6525296 -37.7972134 -0.30077856 -29.17578125 -3.1640625 C-18.94985209 -5.68638829 -9.17886406 -5.31276643 0 0 Z " fill="#343434" transform="translate(381.375,427.1015625)"/>
<path d="M0 0 C0.99 0.33 1.98 0.66 3 1 C1.39220799 6.58639596 -1.20603032 11.46612151 -3.9375 16.5625 C-4.38029297 17.39974609 -4.82308594 18.23699219 -5.27929688 19.09960938 C-7.04538939 22.42386399 -8.76775946 25.65670889 -10.87890625 28.77734375 C-12.35838383 31.71052404 -11.86916179 32.85885828 -11 36 C-10.0808551 37.96861503 -9.09344021 39.90607505 -8.05859375 41.81640625 C-7.47529297 42.91017578 -6.89199219 44.00394531 -6.29101562 45.13085938 C-5.05282274 47.4232776 -3.81323331 49.71494206 -2.57226562 52.00585938 C-1.99025391 53.09833984 -1.40824219 54.19082031 -0.80859375 55.31640625 C-0.27032959 56.31099854 0.26793457 57.30559082 0.82250977 58.33032227 C2 61 2 61 2 65 C-2.06718463 63.73605681 -5.72465565 62.22548443 -9.4765625 60.21484375 C-10.476875 59.68439453 -11.4771875 59.15394531 -12.5078125 58.60742188 C-13.53648437 58.05634766 -14.56515625 57.50527344 -15.625 56.9375 C-17.67755835 55.83846223 -19.73216687 54.74324253 -21.7890625 53.65234375 C-22.69350098 53.16757568 -23.59793945 52.68280762 -24.52978516 52.18334961 C-27.6474868 50.64387141 -27.6474868 50.64387141 -31 50 C-33.78111287 51.04620277 -33.78111287 51.04620277 -36.68359375 52.7109375 C-38.32231445 53.58878906 -38.32231445 53.58878906 -39.99414062 54.484375 C-41.13044922 55.10828125 -42.26675781 55.7321875 -43.4375 56.375 C-45.68310203 57.5968529 -47.93169685 58.81322538 -50.18359375 60.0234375 C-51.17931396 60.56919434 -52.17503418 61.11495117 -53.20092773 61.67724609 C-55.85080579 62.92949549 -58.11354567 63.57582216 -61 64 C-60.39479055 59.88165792 -59.01835666 56.82327575 -57.0234375 53.18359375 C-56.435625 52.08982422 -55.8478125 50.99605469 -55.2421875 49.86914062 C-53.99396904 47.57508222 -52.7413363 45.28342034 -51.484375 42.99414062 C-50.89914062 41.90166016 -50.31390625 40.80917969 -49.7109375 39.68359375 C-49.16743652 38.68900146 -48.62393555 37.69440918 -48.06396484 36.66967773 C-46.86942469 33.67236323 -46.76065483 32.90762733 -48 30 C-49.01087104 27.90344394 -50.07073695 25.83027321 -51.16015625 23.7734375 C-51.46948593 23.18454742 -51.77881561 22.59565735 -52.09751892 21.98892212 C-53.08178767 20.11544253 -54.07148228 18.24491738 -55.0625 16.375 C-56.37056245 13.90607555 -57.67320195 11.43440116 -58.97265625 8.9609375 C-59.55281494 7.86571777 -60.13297363 6.77049805 -60.73071289 5.64208984 C-62 3 -62 3 -62 1 C-57.42851535 1.54520349 -54.13736396 2.74928339 -50.12109375 4.9765625 C-49.03505859 5.564375 -47.94902344 6.1521875 -46.83007812 6.7578125 C-44.56205697 8.00607285 -42.29643701 9.25870566 -40.03320312 10.515625 C-38.94845703 11.10085937 -37.86371094 11.68609375 -36.74609375 12.2890625 C-35.76310303 12.83256348 -34.7801123 13.37606445 -33.76733398 13.93603516 C-30.53020404 15.1806238 -29.25272434 15.09577252 -26 14 C-24.16719094 13.17576308 -22.36312165 12.28583111 -20.5859375 11.34765625 C-19.57789063 10.81849609 -18.56984375 10.28933594 -17.53125 9.74414062 C-16.4896875 9.18919922 -15.448125 8.63425781 -14.375 8.0625 C-13.32570313 7.51142578 -12.27640625 6.96035156 -11.1953125 6.39257812 C-5.4851751 3.3877592 -5.4851751 3.3877592 0 0 Z " fill="#363636" transform="translate(516,153)"/>
<path d="M0 0 C4.49316995 4.09671378 7.97813973 8.71434062 11 14 C11 14.66 11 15.32 11 16 C17.6 16 24.2 16 31 16 C27.62356465 19.37643535 25.14838232 21.79214948 21.3125 24.3125 C20.54550781 24.82425781 19.77851563 25.33601563 18.98828125 25.86328125 C17 27 17 27 15 27 C15 33.6 15 40.2 15 47 C12 46 12 46 10.40625 42.875 C10.10710693 42.25061035 9.80796387 41.6262207 9.49975586 40.98291016 C6.40249311 34.78170998 6.40249311 34.78170998 0.72216797 31.24316406 C-4.85663524 30.38257545 -10.38696475 30.60029251 -16 31 C-14.64931683 26.94795049 -12.60422271 26.12451637 -9.0625 23.8125 C-7.98097656 23.09707031 -6.89945312 22.38164062 -5.78515625 21.64453125 C-3 20 -3 20 -1 20 C-1.01160156 18.72382813 -1.02320313 17.44765625 -1.03515625 16.1328125 C-1.04453417 14.46354313 -1.05363437 12.79427217 -1.0625 11.125 C-1.07087891 10.28324219 -1.07925781 9.44148438 -1.08789062 8.57421875 C-1.09111328 7.76855469 -1.09433594 6.96289062 -1.09765625 6.1328125 C-1.10289307 5.38918457 -1.10812988 4.64555664 -1.11352539 3.87939453 C-1 2 -1 2 0 0 Z " fill="#393939" transform="translate(479,265)"/>
<path d="M0 0 C4.61513222 2.30756611 4.63284965 3.09472422 6.625 7.5625 C8.3967345 10.57169873 9.63343502 12.59910673 13.08056641 13.61035156 C18.38141003 14.3575015 23.66415952 14.24279486 29 14 C27.64931683 18.05204951 25.60422271 18.87548363 22.0625 21.1875 C20.98097656 21.90292969 19.89945312 22.61835938 18.78515625 23.35546875 C16 25 16 25 14 25 C14 30.94 14 36.88 14 43 C8.79268293 37.79268293 8.79268293 37.79268293 6.75 33.25 C5.1639593 30.69282743 4.03540425 29.26945649 1.06933594 28.49755859 C-3.94648049 27.82754026 -8.95003545 27.85941079 -14 28 C-14 27.34 -14 26.68 -14 26 C-12.09625645 24.55036041 -10.12532841 23.18815677 -8.125 21.875 C-6.48917969 20.78832031 -6.48917969 20.78832031 -4.8203125 19.6796875 C-2 18 -2 18 0 18 C0 12.06 0 6.12 0 0 Z " fill="#373737" transform="translate(377,164)"/>
</svg>
